<svg xmlns="http://www.w3.org/2000/svg" viewBox="0 0 480.68 111.27">
  <defs>
    <style>.cls-1{fill:#001f52;}.cls-2{fill:#12b62c;}</style>
  </defs>
  <title>logo-blu</title>
  <g id="Livello_2" data-name="Livello 2">
    <g id="Livello_1-2" data-name="Livello 1">
      <path class="cls-1"
            d="M160.2,83.21a1.81,1.81,0,0,1-1.62-.92L143.32,59.85h-.12L127.82,82.29a1.81,1.81,0,0,1-1.62.92h-4.63a.76.76,0,0,1-.75-.34.88.88,0,0,1,.06-.81L139.73,54.3l-17-25.1a.88.88,0,0,1-.06-.81.77.77,0,0,1,.75-.35h4.75a1.82,1.82,0,0,1,1.62.93L143.2,48.86h.12L156.85,29a1.8,1.8,0,0,1,1.62-.93h4.62a.77.77,0,0,1,.76.35.91.91,0,0,1-.06.81L146.67,54.3l19,27.76a.91.91,0,0,1,.06.81.77.77,0,0,1-.76.34Z"/>
      <path class="cls-1"
            d="M201.14,83.56q-7.86,0-11.1-3.36T186.8,68.64V34.29a.61.61,0,0,0-.69-.69h-5.78a1,1,0,0,1-1.16-1.16V29.2A1,1,0,0,1,180.33,28h5.78a.61.61,0,0,0,.69-.69V14.74A1,1,0,0,1,188,13.58h3.93a1,1,0,0,1,1.16,1.16V27.35a.61.61,0,0,0,.69.69h10.41a1,1,0,0,1,1.16,1.16v3.24a1,1,0,0,1-1.16,1.16H193.74a.61.61,0,0,0-.69.69v34q0,5.55,2,7.41c1.35,1.23,3.65,1.85,6.88,1.85h2.2a1,1,0,0,1,1.16,1.15v3.7a1,1,0,0,1-1.16,1.16Z"/>
      <path class="cls-1"
            d="M227.05,83.21a1,1,0,0,1-1.16-1.15V29.2A1,1,0,0,1,227.05,28H231a1,1,0,0,1,1.16,1.16v7.06h.11a15.14,15.14,0,0,1,5.27-6.71,15.83,15.83,0,0,1,9.54-2.66,18.12,18.12,0,0,1,6.24,1,14.87,14.87,0,0,1,4.86,2.77c.62.39.69.89.23,1.51l-2.31,3.24c-.39.54-1,.61-1.74.23a20.39,20.39,0,0,0-4-2,14,14,0,0,0-4.75-.75,11.53,11.53,0,0,0-10.35,5.5,18.49,18.49,0,0,0-2.31,5.89,33.68,33.68,0,0,0-.75,7.23V82.06A1,1,0,0,1,231,83.21Z"/>
      <path class="cls-1"
            d="M295.29,84.37q-8.1,0-13.46-3.7a20,20,0,0,1-7.62-10.87A32.64,32.64,0,0,1,273,64.07a70.59,70.59,0,0,1-.4-8.5,72.44,72.44,0,0,1,.4-8.5,32.38,32.38,0,0,1,1.21-5.84,20.32,20.32,0,0,1,7.62-10.64,21.77,21.77,0,0,1,12.8-3.7,22,22,0,0,1,12.86,3.7,20.13,20.13,0,0,1,7.67,10.64A26.15,26.15,0,0,1,316.45,47a86.54,86.54,0,0,1,.35,8.91c0,.77-.43,1.15-1.27,1.15h-36c-.47,0-.7.28-.7.81a44,44,0,0,0,.29,5.61A26.71,26.71,0,0,0,280,67.6a15.46,15.46,0,0,0,6,8.15,17.23,17.23,0,0,0,9.65,2.61,19.19,19.19,0,0,0,9.2-2,20.06,20.06,0,0,0,6.19-5,1,1,0,0,1,1.61-.23l2.67,2.43a1.07,1.07,0,0,1,.11,1.62,22.82,22.82,0,0,1-8.1,6.65A26.14,26.14,0,0,1,295.29,84.37Zm14.57-32.73a.61.61,0,0,0,.69-.69,36,36,0,0,0-.23-4.43,16.16,16.16,0,0,0-.81-3.5,14,14,0,0,0-5.46-7.76,16.37,16.37,0,0,0-9.4-2.59,16.18,16.18,0,0,0-9.29,2.59A14,14,0,0,0,279.91,43a16.15,16.15,0,0,0-.82,3.5,38.08,38.08,0,0,0-.23,4.43.61.61,0,0,0,.7.69Z"/>
      <path class="cls-1"
            d="M357.28,32.67a25.88,25.88,0,0,0-8.27,1.1,18.32,18.32,0,0,0-5.61,3.06c-.69.54-1.27.51-1.74-.11l-2-2.89a1.09,1.09,0,0,1,.34-1.62,21.18,21.18,0,0,1,7.35-3.93,33.52,33.52,0,0,1,10.23-1.39,39.62,39.62,0,0,1,9.14.92A14.26,14.26,0,0,1,373,30.94a13,13,0,0,1,3.65,5.66,27.1,27.1,0,0,1,1.17,8.56v36.9a1,1,0,0,1-1.17,1.15h-3.78a1,1,0,0,1-1.18-1.15V76.27h-.11a13,13,0,0,1-6,5.79,23.65,23.65,0,0,1-11.16,2.31q-8.33,0-13.41-4.12T336,68q0-8.36,5.37-12.36t15.56-4h14a.61.61,0,0,0,.7-.69V45.32a22.47,22.47,0,0,0-.64-5.75,8,8,0,0,0-2.31-4,10,10,0,0,0-4.45-2.24A29.39,29.39,0,0,0,357.28,32.67Zm-1.44,45.92q7.14,0,11.46-3.36a10.82,10.82,0,0,0,4.32-9V57.77a.62.62,0,0,0-.7-.7H357.79q-8.3,0-11.92,2.66c-2.42,1.78-3.63,4.51-3.63,8.22q0,5.2,3.52,7.92T355.84,78.59Z"/>
      <path class="cls-1"
            d="M475.59,83.21a1,1,0,0,1-1.15-1.15V49.44q0-16.53-14.58-16.54A14.88,14.88,0,0,0,449.22,37q-4.28,4-4.28,11.33V82.06a1,1,0,0,1-1.15,1.15h-3.94a1,1,0,0,1-1.15-1.15V49.44q0-16.53-14.46-16.54A15.09,15.09,0,0,0,413.54,37q-4.34,4-4.33,11.33V82.06a1,1,0,0,1-1.16,1.15h-3.93A1,1,0,0,1,403,82.06V29.2A1,1,0,0,1,404.12,28h3.93a1,1,0,0,1,1.16,1.16v6.59h.11a15.8,15.8,0,0,1,6.25-6.47,19.62,19.62,0,0,1,10.06-2.43q12.84,0,17.12,10.29h.11a18.15,18.15,0,0,1,6.88-7.57A21.27,21.27,0,0,1,461,26.89q9.36,0,14.51,5.43t5.15,15.62V82.06a1,1,0,0,1-1.16,1.15Z"/>
      <path class="cls-1"
            d="M22.05,99.33a7,7,0,0,0,9.89,9.9L55.65,85.52l-.27.07c-.47.14-.94.26-1.42.38l-.85.21c-.54.11-1.09.2-1.64.29-.23,0-.44.09-.67.12-.78.11-1.56.19-2.35.24h-.14c-.73,0-1.47.06-2.21,0-.25,0-.51,0-.77,0-.53,0-1,0-1.58-.08l-.93-.11c-.48-.06-1-.12-1.43-.2s-.66-.12-1-.19-.9-.18-1.34-.29-.68-.18-1-.28-.87-.25-1.3-.39c-.17,0-.34-.09-.5-.15Z"/>
      <path class="cls-1"
            d="M56.13,46a13.54,13.54,0,0,1,4,10.08L71.74,44.46A27.6,27.6,0,0,0,56.6,30,27.6,27.6,0,0,0,27,36.13l-25,25A7,7,0,0,0,11.94,71l5-5L36.9,46A13.62,13.62,0,0,1,56.13,46Z"/>
      <path class="cls-2"
            d="M71,11.94a7,7,0,0,0-9.89-9.89l-23.7,23.7.28-.08c.44-.13.89-.24,1.34-.35l.93-.23c.5-.11,1-.19,1.51-.27l.8-.14c.77-.1,1.54-.18,2.32-.23H45c.65,0,1.3-.06,2-.05l.86,0c.5,0,1,0,1.5.08l1,.12c.46.05.92.11,1.38.19s.68.12,1,.19.88.18,1.32.29l1,.28c.43.12.85.25,1.28.39.17.05.34.09.51.15Z"/>
      <path class="cls-2"
            d="M36.9,65.25a13.57,13.57,0,0,1-4-10.08L21.29,66.81A27.59,27.59,0,0,0,66,75.14l25-25a7,7,0,0,0-9.89-9.89l-5,5.05L56.13,65.25A13.62,13.62,0,0,1,36.9,65.25Z"/>
    </g>
  </g>
</svg>
